<svg width="32" height="32" viewBox="0 0 32 32" fill="none" xmlns="http://www.w3.org/2000/svg">
  <!-- Background circle -->
  <circle cx="16" cy="16" r="16" fill="#21A1D9"/>
  
  <!-- Building icon representing real estate -->
  <g fill="#FFFFFF">
    <!-- Main building -->
    <rect x="8" y="12" width="6" height="14" rx="1"/>
    <rect x="18" y="8" width="6" height="18" rx="1"/>
    
    <!-- Windows -->
    <rect x="9.5" y="14" width="1" height="1" fill="#21A1D9"/>
    <rect x="11.5" y="14" width="1" height="1" fill="#21A1D9"/>
    <rect x="9.5" y="16" width="1" height="1" fill="#21A1D9"/>
    <rect x="11.5" y="16" width="1" height="1" fill="#21A1D9"/>
    <rect x="9.5" y="18" width="1" height="1" fill="#21A1D9"/>
    <rect x="11.5" y="18" width="1" height="1" fill="#21A1D9"/>
    
    <rect x="19.5" y="10" width="1" height="1" fill="#21A1D9"/>
    <rect x="21.5" y="10" width="1" height="1" fill="#21A1D9"/>
    <rect x="19.5" y="12" width="1" height="1" fill="#21A1D9"/>
    <rect x="21.5" y="12" width="1" height="1" fill="#21A1D9"/>
    <rect x="19.5" y="14" width="1" height="1" fill="#21A1D9"/>
    <rect x="21.5" y="14" width="1" height="1" fill="#21A1D9"/>
    <rect x="19.5" y="16" width="1" height="1" fill="#21A1D9"/>
    <rect x="21.5" y="16" width="1" height="1" fill="#21A1D9"/>
    
    <!-- Door -->
    <rect x="10" y="22" width="2" height="4" fill="#21A1D9"/>
    
    <!-- Arabic letter "ع" stylized -->
    <path d="M4 20 C4 18, 5 17, 6 17 C7 17, 7 18, 6 19 C5 19, 4 19, 4 20 Z" fill="#FFFFFF"/>
    <circle cx="5" cy="21" r="0.5" fill="#FFFFFF"/>
  </g>
</svg>
